<svg xmlns="http://www.w3.org/2000/svg" width="14" height="14" fill="none" viewBox="0 0 14 14"><path fill="currentColor" d="M7 0C5.61553 0 4.26215 0.410543 3.11101 1.17971C1.95987 1.94888 1.06266 3.04213 0.532846 4.32122C0.00303299 5.6003 -0.13559 7.00776 0.134506 8.36563C0.404603 9.7235 1.07129 10.9708 2.05026 11.9497C3.02922 12.9287 4.2765 13.5954 5.63437 13.8655C6.99224 14.1356 8.3997 13.997 9.67879 13.4672C10.9579 12.9373 12.0511 12.0401 12.8203 10.889C13.5895 9.73785 14 8.38447 14 7C13.998 5.14409 13.2599 3.36475 11.9476 2.05242C10.6353 0.740087 8.85592 0.00195988 7 0ZM11.0001 8.6874C11.1028 8.74664 11.1831 8.83813 11.2285 8.94767C11.2739 9.0572 11.2819 9.17866 11.2512 9.29319C11.2205 9.40773 11.1529 9.50893 11.0588 9.58109C10.9647 9.65326 10.8494 9.69235 10.7309 9.69231C10.6363 9.6926 10.5434 9.66774 10.4616 9.62029L7.53846 7.93288V11.3077C7.53846 11.4505 7.48173 11.5875 7.38075 11.6884C7.27977 11.7894 7.14281 11.8462 7 11.8462C6.85719 11.8462 6.72023 11.7894 6.61925 11.6884C6.51827 11.5875 6.46154 11.4505 6.46154 11.3077V7.93288L3.53837 9.62029C3.41473 9.69151 3.26787 9.71074 3.13006 9.67376C2.99225 9.63679 2.87475 9.54662 2.80337 9.42308C2.73188 9.29946 2.71242 9.1525 2.74928 9.01454C2.78614 8.87657 2.87629 8.7589 2.99991 8.6874L5.92308 7L2.99991 5.3126C2.8762 5.24119 2.78592 5.12357 2.74894 4.9856C2.73063 4.91729 2.72595 4.84604 2.73517 4.77592C2.74439 4.70579 2.76734 4.63818 2.80269 4.57692C2.83805 4.51567 2.88513 4.46198 2.94123 4.41892C2.99734 4.37586 3.06137 4.34427 3.12969 4.32595C3.26765 4.28897 3.41466 4.30831 3.53837 4.37971L6.46154 6.06711V2.69231C6.46154 2.5495 6.51827 2.41254 6.61925 2.31156C6.72023 2.21058 6.85719 2.15385 7 2.15385C7.14281 2.15385 7.27977 2.21058 7.38075 2.31156C7.48173 2.41254 7.53846 2.5495 7.53846 2.69231V6.06711L10.4616 4.37971C10.5853 4.30831 10.7324 4.28897 10.8703 4.32595C11.0083 4.36294 11.1259 4.45321 11.1973 4.57692C11.2687 4.70063 11.2881 4.84764 11.2511 4.9856C11.2141 5.12357 11.1238 5.24119 11.0001 5.3126L8.07692 7L11.0001 8.6874Z"/></svg>
