<svg xmlns="http://www.w3.org/2000/svg" fill="none" viewBox="0 0 129 129"><path fill="currentColor" d="M64.172.207a64 64 0 1 0 64 64 64.076 64.076 0 0 0-64-64Zm0 120.471a56.471 56.471 0 1 1 56.47-56.471 56.533 56.533 0 0 1-56.47 56.471Zm-28.863-69.02a6.274 6.274 0 1 1 12.548 0 6.274 6.274 0 0 1-12.548 0Zm62.745 0a3.765 3.765 0 0 1-3.764 3.765H79.23a3.765 3.765 0 1 1 0-7.53h15.06a3.765 3.765 0 0 1 3.764 3.765Zm-5.528 29.49C86.302 91.915 75.968 98.09 64.172 98.09s-22.13-6.174-28.355-16.94a3.765 3.765 0 0 1 6.513-3.766C47.25 85.88 55.005 90.56 64.172 90.56c9.167 0 16.941-4.68 21.841-13.177a3.764 3.764 0 1 1 6.513 3.765Z"/></svg>
