<svg xmlns="http://www.w3.org/2000/svg" width="16" height="16" fill="none" viewBox="0 0 16 16"><path fill="currentColor" d="M14 5.625h-3.187l.555-3.058a.373.373 0 0 0-.3-.449.375.375 0 0 0-.437.315l-.58 3.192H6.813l.555-3.058a.375.375 0 0 0-.737-.134l-.58 3.192H3a.375.375 0 0 0 0 .75h2.914l-.59 3.25H2a.375.375 0 0 0 0 .75h3.188l-.557 3.058a.375.375 0 1 0 .737.134l.581-3.192h3.239l-.556 3.058a.375.375 0 1 0 .737.136l.58-3.194H13a.375.375 0 0 0 0-.75h-2.914l.59-3.25H14a.375.375 0 0 0 0-.75m-4.677 4H6.086l.59-3.25h3.238z"/></svg>
