<svg viewBox="0 0 224 228" fill="none" xmlns="http://www.w3.org/2000/svg">
<circle cx="118.252" cy="109.537" r="24.5702" fill="#F36855"/>
<path d="M105.613 91.2607H131.427C131.88 91.2607 132.271 90.9601 132.347 90.5133C132.758 88.0846 133.551 79.869 128.493 67.8109C122.409 53.3059 122.192 48.35 123.206 34.3285C123.877 25.0591 121.292 13.0426 119.463 5.96227C119.179 4.86289 117.584 5.05194 117.51 6.18499C117.07 12.9179 115.937 23.7627 113.051 31.5484C108.571 43.6359 108.764 41.4601 108.571 61.4045C108.42 76.982 105.772 86.4392 104.619 89.8338C104.388 90.515 104.893 91.2607 105.613 91.2607Z" fill="#F36855"/>
<path d="M90.1676 104.916L115.281 94.8268C115.697 94.6594 115.948 94.2405 115.856 93.801C115.354 91.3989 113.066 83.4576 103.653 74.2269C92.3449 63.1382 90.2875 58.6239 86.0437 45.2181C83.2021 36.2415 76.0711 25.9511 71.6691 20.1311C70.9889 19.2317 69.6 20.01 69.9498 21.0821C72.0362 27.4769 75.0542 38.1409 75.1593 46.5949C75.3205 59.5567 74.6967 57.4625 81.9446 76.0444C87.5962 90.5339 88.5596 100.333 88.7098 103.946C88.74 104.672 89.4936 105.187 90.1676 104.916Z" fill="#F36855"/>
<path d="M87.9604 122.862L104.735 103.9C105.037 103.559 105.07 103.065 104.783 102.712C103.228 100.797 97.5901 94.7742 85.2742 90.5074C70.451 85.3719 66.5983 82.2474 56.7563 72.2111C50.2852 65.6122 39.6838 59.5815 33.1808 56.2244C32.1691 55.7021 31.2451 57.0219 32.0472 57.83C36.8058 62.6239 44.1339 70.5957 48.0663 77.8383C54.2042 89.1429 52.7004 87.5591 67.5127 100.916C79.09 111.356 84.4494 119.575 86.2382 122.666C86.597 123.287 87.4856 123.399 87.9604 122.862Z" fill="#F36855"/>
<path d="M109.46 137.153L101.308 112.528C101.164 112.094 100.75 111.817 100.298 111.888C97.7793 112.289 89.3106 114.228 78.8402 123.062C66.2908 133.651 61.4156 135.493 47.109 139.157C37.6444 141.581 26.4642 148.02 19.9805 152.101C19.013 152.71 19.6921 154.18 20.7976 153.888C27.6497 152.084 38.8479 149.573 47.5394 149.752C61.0103 150.03 58.779 150.565 78.7348 144.163C94.463 139.117 104.777 138.552 108.441 138.54C109.153 138.537 109.684 137.83 109.46 137.153Z" fill="#F36855"/>
<path d="M90.9028 129.511L93.5145 105.073C93.5631 104.618 93.3009 104.195 92.8597 104.074C90.4742 103.424 82.3906 101.807 69.9043 105.325C54.8637 109.563 49.9139 109.242 36.0748 106.789C27.0495 105.189 15.0446 106.314 7.78483 107.291C6.65178 107.443 6.66051 109.062 7.78718 109.256C14.4534 110.404 24.9326 112.62 32.2795 116.14C43.8437 121.68 41.6998 121.266 61.5117 123.569C77.0142 125.371 86.1542 128.901 89.3968 130.352C90.047 130.643 90.8271 130.219 90.9028 129.511Z" fill="#F36855"/>
<path d="M126.285 95.9414L135.605 119.501C135.772 119.924 136.198 120.177 136.642 120.081C139.054 119.562 146.977 117.262 156.356 108.209C167.645 97.3138 172.175 95.2931 185.58 91.0621C194.395 88.2797 204.574 81.5537 210.511 77.2743C211.434 76.6086 210.676 75.1875 209.592 75.5368C203.163 77.6091 192.735 80.5343 184.494 80.7598C171.635 81.1118 173.728 80.488 155.112 87.6478C140.562 93.2437 130.807 94.2999 127.24 94.4943C126.524 94.5333 126.022 95.275 126.285 95.9414Z" fill="#F36855"/>
<path d="M117.891 92.2729L138.217 107.398C138.581 107.669 139.076 107.66 139.404 107.345C141.181 105.634 146.707 99.5078 149.915 86.8733C153.777 71.667 156.565 67.5641 165.735 56.9101C171.766 49.9037 176.879 38.8267 179.674 32.0631C180.108 31.0109 178.715 30.202 177.978 31.0694C173.603 36.2156 166.276 44.1926 159.389 48.7224C148.641 55.7913 150.092 54.1591 138.033 70.0465C128.609 82.4637 120.871 88.497 117.94 90.5402C117.352 90.9501 117.316 91.8451 117.891 92.2729Z" fill="#F36855"/>
<path d="M132.524 101.015L131.493 126.969C131.475 127.421 131.76 127.824 132.202 127.917C134.611 128.427 142.789 129.551 155.042 124.945C169.778 119.406 174.739 119.385 188.709 120.96C197.96 122.004 210.096 119.874 217.239 118.316C218.347 118.074 218.219 116.475 217.091 116.356C210.384 115.648 199.569 114.08 191.892 110.865C179.993 105.883 182.159 106.164 162.238 105.178C146.682 104.409 137.339 101.373 133.991 100.08C133.319 99.8202 132.552 100.296 132.524 101.015Z" fill="#F36855"/>
<path d="M150.855 113.472L133.469 133.233C133.171 133.572 133.137 134.062 133.421 134.413C134.964 136.329 140.598 142.366 153.06 146.466C168.043 151.396 171.909 154.504 181.754 164.541C188.297 171.212 199.138 177.201 205.674 180.468C206.687 180.975 207.589 179.653 206.79 178.851C202.034 174.076 194.596 166.001 190.672 158.614C184.61 147.204 186.114 148.789 171.27 135.467C159.683 125.069 154.364 116.802 152.587 113.674C152.23 113.046 151.332 112.93 150.855 113.472Z" fill="#F36855"/>
<path d="M141.465 120.656L118.287 130.492C117.868 130.67 117.625 131.102 117.733 131.544C118.313 133.943 120.813 141.804 130.066 150.967C141.204 161.998 143.335 166.477 147.9 179.772C150.897 188.499 157.839 198.495 162.255 204.333C162.942 205.241 164.347 204.449 163.971 203.374C161.739 196.996 158.562 186.667 158.119 178.455C157.427 165.618 158.104 167.695 150.487 149.261C144.532 134.85 143.223 125.129 142.935 121.572C142.877 120.859 142.124 120.377 141.465 120.656Z" fill="#F36855"/>
<path d="M131.191 136.782L109.26 134.474C108.797 134.425 108.367 134.699 108.253 135.15C107.64 137.566 106.124 145.649 109.197 158.047C112.908 173.022 112.575 177.971 110.236 191.823C108.759 200.576 109.574 212.093 110.374 219.387C110.501 220.54 112.148 220.546 112.34 219.403C113.463 212.714 115.527 202.651 118.673 195.507C123.789 183.891 123.396 186.037 125.649 166.22C127.419 150.652 130.713 141.47 132.044 138.248C132.31 137.603 131.885 136.855 131.191 136.782Z" fill="#F36855"/>
<path d="M123.213 134.798L101.47 118.299C101.109 118.025 100.613 118.029 100.282 118.339C98.4128 120.09 92.4218 126.538 88.8959 140.042C84.6788 156.193 81.6764 160.527 71.8182 171.753C65.2076 179.28 59.5894 191.332 56.6053 198.455C56.1659 199.504 57.5574 200.311 58.3003 199.45C62.966 194.043 71.0114 185.395 78.5464 180.567C90.0685 173.184 88.5087 174.903 101.484 158.141C111.712 144.927 120.069 138.61 123.148 136.528C123.743 136.126 123.785 135.232 123.213 134.798Z" fill="#F36855"/>
</svg>
