<svg width="38" height="38" viewBox="0 0 38 38" fill="none" xmlns="http://www.w3.org/2000/svg">
<path d="M16.4872 12.0222C16.4869 12.551 16.2766 13.058 15.9025 13.4317C15.5284 13.8055 15.0211 14.0153 14.4923 14.015C13.9635 14.0147 13.4565 13.8044 13.0828 13.4303C12.7091 13.0562 12.4992 12.549 12.4995 12.0202C12.4998 11.4914 12.7101 10.9843 13.0842 10.6106C13.4583 10.2369 13.9655 10.0271 14.4943 10.0273C15.0231 10.0276 15.5302 10.2379 15.9039 10.612C16.2776 10.9861 16.4874 11.4934 16.4872 12.0222ZM16.547 15.4914H12.5593V27.9728H16.547V15.4914ZM22.8475 15.4914H18.8798V27.9728H22.8076V21.4231C22.8076 17.7744 27.5629 17.4354 27.5629 21.4231V27.9728H31.5007V20.0673C31.5007 13.9163 24.4625 14.1456 22.8076 17.1662L22.8475 15.4914Z" fill="currentColor"/>
</svg>
