<svg width="38" height="38" viewBox="0 0 38 38" fill="none" xmlns="http://www.w3.org/2000/svg">
<path d="M19.5506 8C13.1689 8 8 13.0471 8 19.2785C7.99791 21.6462 8.75975 23.9544 10.1773 25.8753C11.5949 27.7962 13.5963 29.2323 15.8971 29.9796C16.4747 30.0777 16.6918 29.7393 16.6918 29.4427C16.6918 29.1754 16.6768 28.2878 16.6768 27.3426C13.7753 27.8648 13.0245 26.6524 12.7935 26.0174C12.663 25.6926 12.1005 24.6922 11.6096 24.4238C11.2053 24.2129 10.6278 23.6907 11.5945 23.6771C12.5047 23.6625 13.1539 24.4948 13.371 24.8332C14.4106 26.5385 16.0704 26.0591 16.7345 25.7636C16.8362 25.0305 17.1388 24.5377 17.4715 24.2557C14.9015 23.9738 12.216 23.0004 12.216 18.6864C12.216 17.4593 12.663 16.4453 13.3999 15.6559C13.2844 15.3739 12.8801 14.2178 13.5154 12.667C13.5154 12.667 14.4822 12.3704 16.6918 13.822C17.6322 13.5678 18.6037 13.4399 19.5795 13.4419C20.5613 13.4419 21.5431 13.5682 22.4671 13.822C24.6767 12.3558 25.6435 12.667 25.6435 12.667C26.2788 14.2178 25.8745 15.3739 25.759 15.6559C26.4948 16.4453 26.9429 17.4458 26.9429 18.6864C26.9429 23.0151 24.2436 23.9738 21.6736 24.2557C22.0917 24.6076 22.4532 25.2843 22.4532 26.3422C22.4532 27.8502 22.4382 29.0626 22.4382 29.4438C22.4382 29.7393 22.6554 30.0912 23.2329 29.9784C25.5251 29.2218 27.5168 27.7826 28.928 25.8633C30.3391 23.9441 31.0987 21.6412 31.1 19.2785C31.1 13.0471 25.9311 8 19.5494 8" fill="currentColor"/>
</svg>
