<svg width="38" height="38" viewBox="0 0 38 38" fill="none" xmlns="http://www.w3.org/2000/svg">
<path d="M19 17.9304C18.0317 16.0483 15.3961 12.5395 12.9454 10.8102C10.5972 9.15356 9.70268 9.43893 9.11592 9.70612C8.43617 10.0107 8.31219 11.0549 8.31219 11.6673C8.31219 12.2819 8.64886 16.7002 8.86796 17.4387C9.59473 19.8756 12.1748 20.6985 14.5539 20.4345C11.0696 20.9508 7.97339 22.2194 12.0316 26.7382C16.4969 31.3607 18.1514 25.7474 19 22.9013C19.8486 25.7474 20.8255 31.1587 25.8872 26.7382C29.6878 22.9013 26.9314 20.9508 23.4472 20.4345C25.8252 20.6985 28.4063 19.8756 29.132 17.4387C29.3511 16.7013 29.6878 12.2819 29.6878 11.6684C29.6878 11.0539 29.5638 10.0118 28.8841 9.70398C28.2973 9.43893 27.4027 9.15142 25.0546 10.808C22.6039 12.5405 19.9672 16.0493 19 17.9304Z" fill="black"/>
</svg>
